# This file is brought to you by Roblox Corporation
# Generated by Roblox Studio

mtllib body1.mtl

g Meshpart1

v -579.581 6.35576 71.8896 
v -580.346 5.88635 71.8309 
v -579.623 5.88635 71.8309 
v -580.388 6.35576 71.8896 
v -580.346 5.41694 71.8309 
v -579.623 5.41694 71.8309 
v -580.388 4.94753 71.8896 
v -579.581 4.94753 71.8896 
v -579.883 6.15106 64.1861 
v -579.912 6.12215 64.1861 
v -580.086 5.94848 64.1861 
v -579.715 6.54075 70.1188 
v -580.331 6.03089 70.1188 
v -579.638 6.03089 70.1188 
v -579.638 6.49263 70.1188 
v -580.253 6.54075 70.1188 
v -580.331 6.49263 70.1188 
v -579.665 5.97877 70.1188 
v -580.304 5.97877 70.1188 
v -580.213 5.61039 70.1188 
v -580.304 5.65761 70.1188 
v -579.756 5.61039 70.1188 
v -579.665 5.65761 70.1188 
v -579.581 4.94753 71.611 
v -580.388 6.35576 71.611 
v -579.699 5.65015 69.0232 
v -580.269 5.65015 69.0232 
v -580.269 5.76506 69.0752 
v -579.699 5.76506 69.0752 
v -580.331 6.49263 69.9162 
v -579.665 5.97877 69.9162 
v -580.165 6.43975 66.5749 
v -579.803 6.28955 66.5749 
v -580.287 6.20596 67.6153 
v -579.682 6.10576 67.68 
v -579.682 6.20596 67.6153 
v -580.287 6.10576 67.68 
v -579.682 6.00555 67.6153 
v -580.287 6.00555 67.6153 
v -580.287 6.10576 67.68 
v -579.682 6.10576 67.68 
v -579.844 6.04977 66.4388 
v -580.125 6.04977 66.4388 
v -579.733 6.22252 69.2382 
v -580.236 6.22252 69.2382 
v -579.733 6.00598 69.2382 
v -580.236 6.00598 69.2382 
v -579.803 6.43975 69.6587 
v -580.165 6.43975 69.6587 
v -579.803 6.28955 69.6587 
v -580.165 6.28955 69.6587 
v -579.699 5.87996 69.0232 
v -580.269 5.87996 69.0232 
v -579.699 5.76506 69.0752 
v -580.269 5.76506 69.0752 
v -579.917 6.22383 66.4274 
v -579.93 6.09625 66.4274 
v -579.89 6.15006 66.4274 
v -580.039 6.09625 66.4274 
v -579.93 6.35141 66.4274 
v -579.89 6.2976 66.4274 
v -579.984 6.36725 66.4274 
v -580.051 6.22383 66.4274 
v -580.079 6.15006 66.4274 
v -580.039 6.35141 66.4274 
v -580.079 6.2976 66.4274 
v -579.883 5.94848 64.7125 
v -580.086 5.94848 64.7125 
v -579.984 5.90652 64.7125 
v -579.883 6.15106 64.7125 
v -579.841 6.04977 64.7125 
v -580.086 6.15106 64.7125 
v -580.128 6.04977 64.7125 
v -579.984 6.19302 64.7125 
v -579.581 6.35576 71.8896 
v -580.388 6.35576 71.8896 
v -579.882 6.04977 64.1861 
v -580.128 6.04977 64.1861 
v -580.057 5.97739 64.1861 
v -580.057 5.97739 64.6491 
v -579.984 5.94741 64.1861 
v -579.912 5.97739 64.6491 
v -579.912 5.97739 64.1861 
v -579.984 5.94741 64.6491 
v -580.304 5.65761 70.1188 
v -579.984 6.16011 64.6932 
v -580.062 6.12779 65.8178 
v -579.984 6.16011 65.8178 
v -580.062 6.12779 64.6932 
v -579.906 6.12779 64.6932 
v -580.095 6.04977 65.8178 
v -579.906 6.12779 65.8178 
v -579.874 6.04977 64.6932 
v -579.874 6.04977 65.8178 
v -580.079 6.2976 65.8127 
v -579.93 6.35141 65.8127 
v -579.581 6.35576 71.611 
v -579.623 5.88635 71.611 
v -580.388 6.35576 71.611 
v -580.346 5.88635 71.611 
v -579.699 5.76506 68.6467 
v -580.269 5.76506 68.6467 
v -580.253 6.54075 70.1188 
v -579.715 6.54075 70.1188 
v -579.715 6.54075 69.9162 
v -580.253 6.54075 69.9162 
v -579.638 6.49263 69.9162 
v -580.331 6.49263 70.1188 
v -579.638 6.49263 70.1188 
v -579.638 6.03089 69.9162 
v -580.331 6.49263 69.9162 
v -580.331 6.03089 69.9162 
v -580.388 6.35576 71.8896 
v -579.581 6.35576 71.8896 
v -579.581 6.35576 71.611 
v -580.388 6.35576 71.611 
v -579.665 5.97877 69.9162 
v -579.93 6.35141 66.4274 
v -579.93 6.35141 65.8127 
v -579.984 6.36725 65.8127 
v -579.89 6.2976 66.4274 
v -579.89 6.2976 65.8127 
v -579.984 6.36725 66.4274 
v -580.039 6.35141 65.8127 
v -580.039 6.35141 66.4274 
v -580.079 6.2976 65.8127 
v -580.079 6.2976 66.4274 
v -579.682 6.10576 67.68 
v -580.287 6.10576 67.68 
v -579.699 5.87996 69.0232 
v -580.269 5.87996 69.0232 
v -580.236 6.00598 69.2382 
v -579.733 6.00598 69.2382 
v -580.165 6.43975 66.5749 
v -580.165 6.28955 69.6587 
v -580.165 6.28955 66.5749 
v -579.803 6.43975 69.6587 
v -579.803 6.28955 66.5749 
v -580.287 6.20596 67.6153 
v -579.682 6.20596 67.6153 
v -580.287 6.20596 66.538 
v -579.682 6.20596 66.538 
v -579.984 6.16142 70.6754 
v -580.194 6.13535 71.1583 
v -579.984 6.16142 71.1583 
v -580.194 6.13535 70.6754 
v -579.774 6.13535 70.6754 
v -579.774 6.13535 71.1583 
v -579.885 6.14905 65.7723 
v -579.984 6.19018 66.4388 
v -579.885 6.14905 66.4388 
v -579.984 6.19018 65.7723 
v -580.084 6.14905 66.4388 
v -579.844 6.04977 66.4388 
v -580.084 6.14905 65.7723 
v -580.125 6.04977 66.4388 
v -579.733 6.22252 69.2382 
v -580.236 6.22252 69.2382 
v -580.236 6.00598 69.2382 
v -580.236 6.22252 67.7833 
v -579.733 6.00598 67.7833 
v -579.733 6.22252 67.7833 
v -579.803 6.43975 69.6587 
v -580.165 6.43975 69.6587 
v -579.803 6.28955 69.6587 
v -580.165 6.43975 66.5749 
v -579.803 6.43975 66.5749 
v -580.165 6.28955 66.5749 
v -580.086 5.94848 64.1861 
v -580.128 6.04977 64.7125 
v -580.086 6.15106 64.7125 
v -580.086 6.15106 64.1861 
v -579.984 6.19302 64.7125 
v -579.984 6.19302 64.1861 
v -579.841 6.04977 64.7125 
v -579.883 6.15106 64.7125 
v -579.883 6.15106 64.1861 
v -579.699 5.87996 69.0232 
v -580.269 5.87996 69.0232 
v -579.699 5.76506 69.0752 
v -580.269 5.87996 68.6987 
v -579.699 5.87996 68.6987 
v -580.346 5.88635 71.8309 
v -580.388 6.35576 71.8896 
v -580.388 4.94753 71.8896 
v -579.912 6.12215 64.6491 
v -579.912 6.12215 64.1861 
v -579.882 6.04977 64.6491 
v -579.882 6.04977 64.1861 
v -579.912 5.97739 64.6491 
v -579.912 5.97739 64.1861 
v -580.062 6.12779 65.8178 
v -580.062 6.12779 64.6932 
v -580.095 6.04977 65.8178 
v -580.095 6.04977 64.6932 
v -580.062 5.97175 65.8178 
v -580.062 5.97175 64.6932 
v -580.079 6.2976 65.8127 
v -580.388 4.94753 71.611 
v -580.346 5.88635 71.8309 
v -580.388 6.35576 71.611 
v -580.346 5.88635 71.611 
v -580.388 6.35576 71.8896 
v -580.346 5.41694 71.611 
v -580.346 5.41694 71.8309 
v -580.388 4.94753 71.611 
v -580.388 4.94753 71.8896 
v -580.331 6.49263 70.1188 
v -580.331 6.49263 69.9162 
v -580.331 6.03089 69.9162 
v -580.331 6.03089 70.1188 
v -580.304 5.65761 69.9162 
v -580.304 5.65761 70.1188 
v -580.304 5.97877 69.9162 
v -580.304 5.97877 70.1188 
v -579.93 6.35141 66.4274 
v -580.039 6.35141 65.8127 
v -580.039 6.35141 66.4274 
v -580.079 6.2976 65.8127 
v -580.079 6.2976 66.4274 
v -580.304 5.97877 70.1188 
v -580.331 6.03089 69.9162 
v -580.304 5.97877 69.9162 
v -580.331 6.03089 70.1188 
v -580.287 6.00555 66.538 
v -580.287 6.20596 67.6153 
v -580.287 6.20596 66.538 
v -580.287 6.10576 66.4734 
v -580.287 6.00555 67.6153 
v -580.287 6.10576 67.68 
v -580.269 5.65015 68.6987 
v -580.269 5.87996 69.0232 
v -580.269 5.87996 68.6987 
v -580.269 5.76506 68.6467 
v -580.269 5.65015 69.0232 
v -580.269 5.76506 69.0752 
v -580.236 6.22252 69.2382 
v -580.236 6.22252 67.7833 
v -580.236 6.00598 69.2382 
v -580.236 6.00598 67.7833 
v -580.228 5.94018 71.1583 
v -580.228 5.94018 70.6754 
v -580.194 5.74502 71.1583 
v -580.194 5.74502 70.6754 
v -580.194 6.13535 71.1583 
v -580.194 6.13535 70.6754 
v -580.165 6.43975 69.6587 
v -580.165 6.43975 66.5749 
v -580.165 6.28955 69.6587 
v -580.165 6.28955 66.5749 
v -580.079 6.2976 66.4274 
v -580.079 6.2976 65.8127 
v -580.051 6.22383 66.4274 
v -580.051 6.22383 65.8127 
v -580.079 6.15006 66.4274 
v -580.079 6.15006 65.8127 
v -580.039 6.09625 65.8127 
v -580.039 6.09625 66.4274 
v -580.079 6.15006 66.4274 
v -580.079 6.15006 65.8127 
v -579.885 6.14905 66.4388 
v -580.084 6.14905 66.4388 
v -580.084 6.14905 65.7723 
v -580.125 6.04977 66.4388 
v -580.125 6.04977 65.7723 
v -579.984 5.90936 65.7723 
v -580.084 5.95049 66.4388 
v -579.984 5.90936 66.4388 
v -580.084 5.95049 65.7723 
v -580.086 5.94848 64.1861 
v -580.086 5.94848 64.7125 
v -580.128 6.04977 64.7125 
v -580.128 6.04977 64.1861 
v -580.086 6.15106 64.7125 
v -580.086 6.15106 64.1861 
v -579.581 6.35576 71.8896 
v -580.388 4.94753 71.8896 
v -579.984 6.15213 64.1861 
v -580.086 6.15106 64.1861 
v -579.984 6.19302 64.1861 
v -579.883 6.15106 64.1861 
v -580.057 6.12215 64.1861 
v -579.912 6.12215 64.1861 
v -580.087 6.04977 64.1861 
v -579.882 6.04977 64.1861 
v -580.128 6.04977 64.1861 
v -579.841 6.04977 64.1861 
v -580.086 5.94848 64.1861 
v -579.883 5.94848 64.1861 
v -580.057 5.97739 64.1861 
v -579.912 5.97739 64.1861 
v -579.984 5.94741 64.1861 
v -579.984 5.90652 64.1861 
v -580.057 6.12215 64.6491 
v -580.087 6.04977 64.6491 
v -579.984 6.15213 64.6491 
v -580.057 5.97739 64.6491 
v -579.912 6.12215 64.6491 
v -579.882 6.04977 64.6491 
v -579.912 5.97739 64.6491 
v -579.984 5.94741 64.6491 
v -579.638 6.49263 70.1188 
v -580.304 5.65761 70.1188 
v -580.095 6.04977 65.8178 
v -579.874 6.04977 65.8178 
v -580.125 6.04977 65.7723 
v -580.084 6.14905 65.7723 
v -580.084 5.95049 65.7723 
v -579.885 5.95049 65.7723 
v -579.984 5.90936 65.7723 
v -579.885 6.14905 65.7723 
v -579.984 6.19018 65.7723 
v -579.844 6.04977 65.7723 
v -580.039 6.09625 65.8127 
v -580.051 6.22383 65.8127 
v -579.93 6.09625 65.8127 
v -580.079 6.15006 65.8127 
v -579.917 6.22383 65.8127 
v -579.89 6.15006 65.8127 
v -580.039 6.35141 65.8127 
v -580.079 6.2976 65.8127 
v -579.984 6.36725 65.8127 
v -579.93 6.35141 65.8127 
v -579.89 6.2976 65.8127 
v -580.388 4.94753 71.611 
v -579.581 4.94753 71.611 
v -579.581 6.35576 71.611 
v -579.623 5.88635 71.611 
v -580.388 6.35576 71.611 
v -580.346 5.88635 71.611 
v -579.699 5.65015 68.6987 
v -580.269 5.65015 68.6987 
v -579.699 5.76506 68.6467 
v -580.269 5.76506 68.6467 
v -580.331 6.49263 69.9162 
v -579.665 5.97877 69.9162 
v -580.287 6.20596 66.538 
v -579.682 6.20596 66.538 
v -580.287 6.10576 66.4734 
v -579.682 6.10576 66.4734 
v -579.682 6.00555 66.538 
v -580.287 6.00555 66.538 
v -579.682 6.10576 66.4734 
v -580.287 6.10576 66.4734 
v -580.236 6.22252 67.7833 
v -579.733 6.00598 67.7833 
v -579.733 6.22252 67.7833 
v -580.236 6.00598 67.7833 
v -580.165 6.43975 66.5749 
v -579.803 6.28955 66.5749 
v -579.803 6.43975 66.5749 
v -580.165 6.28955 66.5749 
v -580.269 5.87996 68.6987 
v -579.699 5.87996 68.6987 
v -580.269 5.76506 68.6467 
v -579.699 5.76506 68.6467 
v -579.638 6.03089 69.9162 
v -579.715 6.54075 69.9162 
v -579.638 6.49263 69.9162 
v -580.253 6.54075 69.9162 
v -580.331 6.03089 69.9162 
v -580.331 6.49263 69.9162 
v -580.304 5.97877 69.9162 
v -579.665 5.97877 69.9162 
v -579.756 5.61039 69.9162 
v -579.665 5.65761 69.9162 
v -580.213 5.61039 69.9162 
v -580.304 5.65761 69.9162 
v -579.581 6.35576 71.611 
v -579.623 5.88635 71.611 
v -580.388 6.35576 71.611 
v -580.346 5.88635 71.611 
v -579.623 5.41694 71.611 
v -580.346 5.41694 71.611 
v -579.581 4.94753 71.611 
v -580.388 4.94753 71.611 
v -580.388 4.94753 71.8896 
v -579.581 4.94753 71.8896 
v -579.882 6.04977 64.1861 
v -580.128 6.04977 64.1861 
v -580.057 6.12215 64.6491 
v -580.057 6.12215 64.1861 
v -579.984 6.15213 64.6491 
v -579.984 6.15213 64.1861 
v -579.912 6.12215 64.6491 
v -579.912 6.12215 64.1861 
v -580.304 5.65761 70.1188 
v -580.095 6.04977 65.8178 
v -579.874 6.04977 64.6932 
v -580.062 5.97175 65.8178 
v -579.874 6.04977 65.8178 
v -580.062 5.97175 64.6932 
v -579.906 5.97175 64.6932 
v -579.984 5.93943 65.8178 
v -579.906 5.97175 65.8178 
v -579.984 5.93943 64.6932 
v -580.388 4.94753 71.611 
v -579.581 4.94753 71.611 
v -579.581 4.94753 71.8896 
v -580.388 4.94753 71.8896 
v -579.623 5.88635 71.611 
v -580.346 5.88635 71.611 
v -579.699 5.65015 69.0232 
v -580.269 5.65015 69.0232 
v -579.699 5.65015 68.6987 
v -580.269 5.76506 69.0752 
v -580.269 5.65015 68.6987 
v -579.699 5.76506 68.6467 
v -580.269 5.76506 68.6467 
v -579.638 6.03089 69.9162 
v -580.331 6.03089 69.9162 
v -579.665 5.97877 69.9162 
v -579.665 5.65761 69.9162 
v -579.665 5.65761 70.1188 
v -579.756 5.61039 69.9162 
v -579.756 5.61039 70.1188 
v -580.213 5.61039 69.9162 
v -580.213 5.61039 70.1188 
v -580.304 5.65761 69.9162 
v -580.304 5.65761 70.1188 
v -579.682 6.10576 67.68 
v -580.287 6.10576 67.68 
v -579.984 5.71895 71.1583 
v -579.984 5.71895 70.6754 
v -579.774 5.74502 71.1583 
v -579.774 5.74502 70.6754 
v -580.194 5.74502 70.6754 
v -580.194 5.74502 71.1583 
v -579.699 5.87996 69.0232 
v -580.269 5.87996 69.0232 
v -580.236 6.00598 69.2382 
v -579.733 6.00598 69.2382 
v -580.165 6.43975 66.5749 
v -580.165 6.28955 69.6587 
v -580.165 6.28955 66.5749 
v -579.803 6.43975 69.6587 
v -579.803 6.28955 66.5749 
v -579.682 6.00555 66.538 
v -579.682 6.00555 67.6153 
v -580.287 6.00555 67.6153 
v -580.287 6.00555 66.538 
v -579.885 6.14905 66.4388 
v -579.844 6.04977 66.4388 
v -579.885 5.95049 65.7723 
v -580.125 6.04977 66.4388 
v -579.885 5.95049 66.4388 
v -579.984 5.90936 65.7723 
v -580.084 5.95049 66.4388 
v -579.984 5.90936 66.4388 
v -580.084 5.95049 65.7723 
v -579.733 6.22252 69.2382 
v -579.733 6.00598 69.2382 
v -580.236 6.00598 69.2382 
v -580.236 6.22252 67.7833 
v -579.733 6.00598 67.7833 
v -580.236 6.00598 67.7833 
v -580.165 6.43975 69.6587 
v -579.803 6.28955 69.6587 
v -580.165 6.28955 69.6587 
v -579.803 6.28955 66.5749 
v -579.803 6.43975 66.5749 
v -580.165 6.28955 66.5749 
v -580.086 5.94848 64.1861 
v -580.086 5.94848 64.7125 
v -580.128 6.04977 64.7125 
v -579.984 5.90652 64.1861 
v -579.984 5.90652 64.7125 
v -579.883 5.94848 64.1861 
v -579.883 5.94848 64.7125 
v -579.581 6.35576 71.8896 
v -579.623 5.41694 71.8309 
v -579.581 4.94753 71.8896 
v -580.057 6.12215 64.6491 
v -580.087 6.04977 64.1861 
v -580.057 6.12215 64.1861 
v -580.087 6.04977 64.6491 
v -580.057 5.97739 64.1861 
v -580.057 5.97739 64.6491 
v -579.906 6.12779 64.6932 
v -579.906 6.12779 65.8178 
v -579.874 6.04977 64.6932 
v -579.874 6.04977 65.8178 
v -579.906 5.97175 64.6932 
v -579.906 5.97175 65.8178 
v -579.93 6.35141 65.8127 
v -579.581 4.94753 71.611 
v -579.581 6.35576 71.8896 
v -579.623 5.88635 71.8309 
v -579.581 6.35576 71.611 
v -579.623 5.88635 71.611 
v -579.623 5.41694 71.8309 
v -579.623 5.41694 71.611 
v -579.581 4.94753 71.611 
v -579.581 4.94753 71.8896 
v -579.638 6.49263 69.9162 
v -579.638 6.49263 70.1188 
v -579.638 6.03089 70.1188 
v -579.638 6.03089 69.9162 
v -579.665 5.97877 69.9162 
v -579.665 5.97877 70.1188 
v -579.665 5.65761 69.9162 
v -579.665 5.65761 70.1188 
v -579.93 6.35141 66.4274 
v -579.93 6.35141 65.8127 
v -579.89 6.2976 66.4274 
v -579.89 6.2976 65.8127 
v -580.039 6.35141 65.8127 
v -579.665 5.97877 70.1188 
v -579.665 5.97877 69.9162 
v -579.638 6.03089 70.1188 
v -579.638 6.03089 69.9162 
v -579.682 6.20596 66.538 
v -579.682 6.00555 66.538 
v -579.682 6.10576 66.4734 
v -579.682 6.00555 67.6153 
v -579.682 6.20596 67.6153 
v -579.682 6.10576 67.68 
v -579.699 5.87996 68.6987 
v -579.699 5.65015 68.6987 
v -579.699 5.76506 68.6467 
v -579.699 5.65015 69.0232 
v -579.699 5.87996 69.0232 
v -579.699 5.76506 69.0752 
v -579.733 6.22252 69.2382 
v -579.733 6.00598 67.7833 
v -579.733 6.22252 67.7833 
v -579.733 6.00598 69.2382 
v -579.774 5.74502 71.1583 
v -579.774 5.74502 70.6754 
v -579.741 5.94018 71.1583 
v -579.741 5.94018 70.6754 
v -579.774 6.13535 71.1583 
v -579.774 6.13535 70.6754 
v -579.803 6.43975 69.6587 
v -579.803 6.28955 66.5749 
v -579.803 6.43975 66.5749 
v -579.803 6.28955 69.6587 
v -579.89 6.2976 66.4274 
v -579.917 6.22383 65.8127 
v -579.89 6.2976 65.8127 
v -579.917 6.22383 66.4274 
v -579.89 6.15006 65.8127 
v -579.89 6.15006 66.4274 
v -579.89 6.15006 65.8127 
v -579.89 6.15006 66.4274 
v -579.93 6.09625 66.4274 
v -579.93 6.09625 65.8127 
v -579.885 6.14905 65.7723 
v -579.885 6.14905 66.4388 
v -579.844 6.04977 65.7723 
v -579.844 6.04977 66.4388 
v -579.885 5.95049 65.7723 
v -579.885 5.95049 66.4388 
v -579.984 5.90936 65.7723 
v -579.984 5.90936 66.4388 
v -579.883 5.94848 64.1861 
v -579.883 5.94848 64.7125 
v -579.841 6.04977 64.1861 
v -579.841 6.04977 64.7125 
v -579.883 6.15106 64.7125 
v -579.883 6.15106 64.1861 

vn 0 -0.125984 0.992126 
vn 0 -0.0629921 1 
vn 0 -0.0629921 1 
vn 0 -0.125984 0.992126 
vn 0 0.0629921 1 
vn 0 0.0629921 1 
vn 0 0.125984 0.992126 
vn 0 0.125984 0.992126 
vn 0 0 -1 
vn 0 0 -1 
vn 0 0 -1 
vn 0 0 1 
vn 0 0 1 
vn 0 0 1 
vn 0 0 1 
vn 0 0 1 
vn 0 0 1 
vn 0 0 1 
vn 0 0 1 
vn 0 0 1 
vn 0 0 1 
vn 0 0 1 
vn 0 0 1 
vn 0 -1 0 
vn -0.992126 -0.0866142 0 
vn 0 -0.84252 0.543307 
vn 0 -0.84252 0.543307 
vn 0 -0.409449 0.913386 
vn 0 -0.409449 0.913386 
vn -0.874016 0.488189 0 
vn 1 0 0 
vn -1 0 0 
vn 1 0 0 
vn 0 0.88189 0.480315 
vn 0 0.543307 0.84252 
vn 0 0.88189 0.480315 
vn 0 0.543307 0.84252 
vn 0 -0.88189 0.480315 
vn 0 -0.88189 0.480315 
vn 0 -0.543307 0.84252 
vn 0 -0.543307 0.84252 
vn 1 0 0 
vn -1 0 0 
vn 0 0.708661 0.708661 
vn 0 0.708661 0.708661 
vn 0 -0.708661 0.708661 
vn 0 -0.708661 0.708661 
vn 0 0.708661 0.708661 
vn 0 0.708661 0.708661 
vn 0 -0.708661 0.708661 
vn 0 -0.708661 0.708661 
vn 0 0.84252 0.543307 
vn 0 0.84252 0.543307 
vn 0 0.409449 0.913386 
vn 0 0.409449 0.913386 
vn 0 0 1 
vn 0 0 1 
vn 0 0 1 
vn 0 0 1 
vn 0 0 1 
vn 0 0 1 
vn 0 0 1 
vn 0 0 1 
vn 0 0 1 
vn 0 0 1 
vn 0 0 1 
vn 0 0 1 
vn 0 0 1 
vn 0 0 1 
vn 0 0 1 
vn 0 0 1 
vn 0 0 1 
vn 0 0 1 
vn 0 0 1 
vn 0 -0.125984 0.992126 
vn 0 -0.125984 0.992126 
vn 0 0 -1 
vn 0 0 -1 
vn 0.708661 0.708661 0 
vn 0.551181 0.551181 -0.629921 
vn 0 1 0 
vn -0.551181 0.551181 -0.629921 
vn -0.708661 0.708661 0 
vn 0 0.779528 -0.629921 
vn 0 0 1 
vn 0 1 0 
vn -0.708661 0.708661 0 
vn 0 1 0 
vn -0.708661 0.708661 0 
vn 0.708661 0.708661 0 
vn -1 0 0 
vn 0.708661 0.708661 0 
vn 1 0 0 
vn 1 0 0 
vn 0 0 -1 
vn 0 0 -1 
vn 0.992126 -0.0866142 0 
vn 1 -0.0472441 0 
vn -0.992126 -0.0866142 0 
vn -1 -0.0472441 0 
vn 0 -0.409449 -0.913386 
vn 0 -0.409449 -0.913386 
vn -0.275591 0.96063 0 
vn 0.275591 0.96063 0 
vn 0.275591 0.96063 0 
vn -0.275591 0.96063 0 
vn 0.874016 0.488189 0 
vn -0.874016 0.488189 0 
vn 0.874016 0.488189 0 
vn 1 0 0 
vn -0.874016 0.488189 0 
vn -1 0 0 
vn 0 1 0 
vn 0 1 0 
vn 0 1 0 
vn 0 1 0 
vn 1 0 0 
vn 0.566929 0.818898 0 
vn 0.566929 0.818898 0 
vn 0 1 0 
vn 0.80315 0.598425 0 
vn 0.80315 0.598425 0 
vn 0 1 0 
vn -0.566929 0.818898 0 
vn -0.566929 0.818898 0 
vn -0.80315 0.598425 0 
vn -0.80315 0.598425 0 
vn 1 0 0 
vn -1 0 0 
vn 1 0 0 
vn -1 0 0 
vn -1 0 0 
vn 1 0 0 
vn -1 0 0 
vn -1 0 0 
vn -1 0 0 
vn 1 0 0 
vn 1 0 0 
vn 0 0.88189 0.480315 
vn 0 0.88189 0.480315 
vn 0 0.88189 -0.480315 
vn 0 0.88189 -0.480315 
vn 0 1 0 
vn -0.125984 0.992126 0 
vn 0 1 0 
vn -0.125984 0.992126 0 
vn 0.125984 0.992126 0 
vn 0.125984 0.992126 0 
vn 0.708661 0.708661 0 
vn 0 1 0 
vn 0.708661 0.708661 0 
vn 0 1 0 
vn -0.708661 0.708661 0 
vn 1 0 0 
vn -0.708661 0.708661 0 
vn -1 0 0 
vn 0 0.708661 0.708661 
vn 0 0.708661 0.708661 
vn 0 -0.708661 0.708661 
vn 0 0.708661 -0.708661 
vn 0 -0.708661 -0.708661 
vn 0 0.708661 -0.708661 
vn 0 0.708661 0.708661 
vn 0 0.708661 0.708661 
vn 0 -0.708661 0.708661 
vn 0 0.708661 -0.708661 
vn 0 0.708661 -0.708661 
vn 0 -0.708661 -0.708661 
vn -0.708661 -0.708661 0 
vn -1 0 0 
vn -0.708661 0.708661 0 
vn -0.708661 0.708661 0 
vn 0 1 0 
vn 0 1 0 
vn 1 0 0 
vn 0.708661 0.708661 0 
vn 0.708661 0.708661 0 
vn 0 0.84252 0.543307 
vn 0 0.84252 0.543307 
vn 0 0.409449 0.913386 
vn 0 0.84252 -0.543307 
vn 0 0.84252 -0.543307 
vn 0 -0.0629921 1 
vn 0 -0.125984 0.992126 
vn 0 0.125984 0.992126 
vn -0.551181 -0.551181 -0.629921 
vn -0.708661 -0.708661 0 
vn -0.779528 0 -0.629921 
vn -1 0 0 
vn -0.551181 0.551181 -0.629921 
vn -0.708661 0.708661 0 
vn -0.708661 0.708661 0 
vn -0.708661 0.708661 0 
vn -1 0 0 
vn -1 0 0 
vn -0.708661 -0.708661 0 
vn -0.708661 -0.708661 0 
vn 0 0 -1 
vn 0 -1 0 
vn -1 -0.0472441 0 
vn -0.992126 -0.0866142 0 
vn -1 -0.0472441 0 
vn -0.992126 -0.0866142 0 
vn -1 0.0472441 0 
vn -1 0.0472441 0 
vn -0.992126 0.0866142 0 
vn -0.992126 0.0866142 0 
vn -0.874016 0.488189 0 
vn -0.874016 0.488189 0 
vn -1 0 0 
vn -1 0 0 
vn -0.858268 -0.519685 0 
vn -0.858268 -0.519685 0 
vn -1 0 0 
vn -1 0 0 
vn 0.566929 0.818898 0 
vn -0.566929 0.818898 0 
vn -0.566929 0.818898 0 
vn -0.80315 0.598425 0 
vn -0.80315 0.598425 0 
vn -0.889764 -0.456693 0 
vn -0.889764 -0.456693 0 
vn -0.889764 -0.456693 0 
vn -0.889764 -0.456693 0 
vn -1 0 0 
vn -1 0 0 
vn -1 0 0 
vn -1 0 0 
vn -1 0 0 
vn -1 0 0 
vn -1 0 0 
vn -1 0 0 
vn -1 0 0 
vn -1 0 0 
vn -1 0 0 
vn -1 0 0 
vn -1 0 0 
vn -1 0 0 
vn -1 0 0 
vn -1 0 0 
vn -1 0 0 
vn -1 0 0 
vn -0.984252 -0.165354 0 
vn -0.984252 -0.165354 0 
vn -0.984252 0.165354 0 
vn -0.984252 0.165354 0 
vn -1 0 0 
vn -1 0 0 
vn -1 0 0 
vn -1 0 0 
vn -0.937008 -0.346457 0 
vn -0.937008 -0.346457 0 
vn -1 0 0 
vn -1 0 0 
vn -0.937008 0.346457 0 
vn -0.937008 0.346457 0 
vn -0.80315 -0.598425 0 
vn -0.80315 -0.598425 0 
vn -0.80315 -0.598425 0 
vn -0.80315 -0.598425 0 
vn 0.708661 0.708661 0 
vn -0.708661 0.708661 0 
vn -0.708661 0.708661 0 
vn -1 0 0 
vn -1 0 0 
vn 0 -1 0 
vn -0.708661 -0.708661 0 
vn 0 -1 0 
vn -0.708661 -0.708661 0 
vn -0.708661 -0.708661 0 
vn -0.708661 -0.708661 0 
vn -1 0 0 
vn -1 0 0 
vn -0.708661 0.708661 0 
vn -0.708661 0.708661 0 
vn 0 -0.125984 0.992126 
vn 0 0.125984 0.992126 
vn 0 0 -1 
vn 0 0 -1 
vn 0 0 -1 
vn 0 0 -1 
vn 0 0 -1 
vn 0 0 -1 
vn 0 0 -1 
vn 0 0 -1 
vn 0 0 -1 
vn 0 0 -1 
vn 0 0 -1 
vn 0 0 -1 
vn 0 0 -1 
vn 0 0 -1 
vn 0 0 -1 
vn 0 0 -1 
vn 0.551181 -0.551181 -0.629921 
vn 0.779528 0 -0.629921 
vn 0 -0.779528 -0.629921 
vn 0.551181 0.551181 -0.629921 
vn -0.551181 -0.551181 -0.629921 
vn -0.779528 0 -0.629921 
vn -0.551181 0.551181 -0.629921 
vn 0 0.779528 -0.629921 
vn 0 0 1 
vn 0 0 1 
vn -1 0 0 
vn 1 0 0 
vn 0 0 -1 
vn 0 0 -1 
vn 0 0 -1 
vn 0 0 -1 
vn 0 0 -1 
vn 0 0 -1 
vn 0 0 -1 
vn 0 0 -1 
vn 0 0 -1 
vn 0 0 -1 
vn 0 0 -1 
vn 0 0 -1 
vn 0 0 -1 
vn 0 0 -1 
vn 0 0 -1 
vn 0 0 -1 
vn 0 0 -1 
vn 0 0 -1 
vn 0 0 -1 
vn 0 -1 0 
vn 0 -1 0 
vn 0.992126 -0.0866142 0 
vn 1 -0.0472441 0 
vn -0.992126 -0.0866142 0 
vn -1 -0.0472441 0 
vn 0 -0.84252 -0.543307 
vn 0 -0.84252 -0.543307 
vn 0 -0.409449 -0.913386 
vn 0 -0.409449 -0.913386 
vn -0.874016 0.488189 0 
vn 1 0 0 
vn 0 0.88189 -0.480315 
vn 0 0.88189 -0.480315 
vn 0 0.543307 -0.84252 
vn 0 0.543307 -0.84252 
vn 0 -0.88189 -0.480315 
vn 0 -0.88189 -0.480315 
vn 0 -0.543307 -0.84252 
vn 0 -0.543307 -0.84252 
vn 0 0.708661 -0.708661 
vn 0 -0.708661 -0.708661 
vn 0 0.708661 -0.708661 
vn 0 -0.708661 -0.708661 
vn 0 0.708661 -0.708661 
vn 0 -0.708661 -0.708661 
vn 0 0.708661 -0.708661 
vn 0 -0.708661 -0.708661 
vn 0 0.84252 -0.543307 
vn 0 0.84252 -0.543307 
vn 0 0.409449 -0.913386 
vn 0 0.409449 -0.913386 
vn 0 0 -1 
vn 0 0 -1 
vn 0 0 -1 
vn 0 0 -1 
vn 0 0 -1 
vn 0 0 -1 
vn 0 0 -1 
vn 0 0 -1 
vn 0 0 -1 
vn 0 0 -1 
vn 0 0 -1 
vn 0 0 -1 
vn 0 0 -1 
vn 0 0 -1 
vn 0 0 -1 
vn 0 0 -1 
vn 0 0 -1 
vn 0 0 -1 
vn 0 0 -1 
vn 0 0 -1 
vn 0 0.125984 0.992126 
vn 0 0.125984 0.992126 
vn 0 0 -1 
vn 0 0 -1 
vn 0.551181 -0.551181 -0.629921 
vn 0.708661 -0.708661 0 
vn 0 -0.779528 -0.629921 
vn 0 -1 0 
vn -0.551181 -0.551181 -0.629921 
vn -0.708661 -0.708661 0 
vn 0 0 1 
vn -1 0 0 
vn 1 0 0 
vn -0.708661 -0.708661 0 
vn 1 0 0 
vn -0.708661 -0.708661 0 
vn 0.708661 -0.708661 0 
vn 0 -1 0 
vn 0.708661 -0.708661 0 
vn 0 -1 0 
vn 0 -1 0 
vn 0 -1 0 
vn 0 -1 0 
vn 0 -1 0 
vn 1 -0.0472441 0 
vn -1 -0.0472441 0 
vn 0 -0.84252 0.543307 
vn 0 -0.84252 0.543307 
vn 0 -0.84252 -0.543307 
vn 0 -0.409449 0.913386 
vn 0 -0.84252 -0.543307 
vn 0 -0.409449 -0.913386 
vn 0 -0.409449 -0.913386 
vn 1 0 0 
vn -1 0 0 
vn 1 0 0 
vn 0.858268 -0.519685 0 
vn 0.858268 -0.519685 0 
vn 0.23622 -0.968504 0 
vn 0.23622 -0.968504 0 
vn -0.23622 -0.968504 0 
vn -0.23622 -0.968504 0 
vn -0.858268 -0.519685 0 
vn -0.858268 -0.519685 0 
vn 1 0 0 
vn -1 0 0 
vn 0 -1 0 
vn 0 -1 0 
vn 0.125984 -0.992126 0 
vn 0.125984 -0.992126 0 
vn -0.125984 -0.992126 0 
vn -0.125984 -0.992126 0 
vn 1 0 0 
vn -1 0 0 
vn -1 0 0 
vn 1 0 0 
vn -1 0 0 
vn -1 0 0 
vn -1 0 0 
vn 1 0 0 
vn 1 0 0 
vn 0 -0.88189 -0.480315 
vn 0 -0.88189 0.480315 
vn 0 -0.88189 0.480315 
vn 0 -0.88189 -0.480315 
vn 0.708661 0.708661 0 
vn 1 0 0 
vn 0.708661 -0.708661 0 
vn -1 0 0 
vn 0.708661 -0.708661 0 
vn 0 -1 0 
vn -0.708661 -0.708661 0 
vn 0 -1 0 
vn -0.708661 -0.708661 0 
vn 0 0.708661 0.708661 
vn 0 -0.708661 0.708661 
vn 0 -0.708661 0.708661 
vn 0 0.708661 -0.708661 
vn 0 -0.708661 -0.708661 
vn 0 -0.708661 -0.708661 
vn 0 0.708661 0.708661 
vn 0 -0.708661 0.708661 
vn 0 -0.708661 0.708661 
vn 0 -0.708661 -0.708661 
vn 0 0.708661 -0.708661 
vn 0 -0.708661 -0.708661 
vn -0.708661 -0.708661 0 
vn -0.708661 -0.708661 0 
vn -1 0 0 
vn 0 -1 0 
vn 0 -1 0 
vn 0.708661 -0.708661 0 
vn 0.708661 -0.708661 0 
vn 0 -0.125984 0.992126 
vn 0 0.0629921 1 
vn 0 0.125984 0.992126 
vn 0.551181 -0.551181 -0.629921 
vn 1 0 0 
vn 0.708661 -0.708661 0 
vn 0.779528 0 -0.629921 
vn 0.708661 0.708661 0 
vn 0.551181 0.551181 -0.629921 
vn 0.708661 0.708661 0 
vn 0.708661 0.708661 0 
vn 1 0 0 
vn 1 0 0 
vn 0.708661 -0.708661 0 
vn 0.708661 -0.708661 0 
vn 0 0 -1 
vn 0 -1 0 
vn 0.992126 -0.0866142 0 
vn 1 -0.0472441 0 
vn 0.992126 -0.0866142 0 
vn 1 -0.0472441 0 
vn 1 0.0472441 0 
vn 1 0.0472441 0 
vn 0.992126 0.0866142 0 
vn 0.992126 0.0866142 0 
vn 0.874016 0.488189 0 
vn 0.874016 0.488189 0 
vn 1 0 0 
vn 1 0 0 
vn 1 0 0 
vn 1 0 0 
vn 0.858268 -0.519685 0 
vn 0.858268 -0.519685 0 
vn 0.566929 0.818898 0 
vn 0.566929 0.818898 0 
vn 0.80315 0.598425 0 
vn 0.80315 0.598425 0 
vn -0.566929 0.818898 0 
vn 0.889764 -0.456693 0 
vn 0.889764 -0.456693 0 
vn 0.889764 -0.456693 0 
vn 0.889764 -0.456693 0 
vn 1 0 0 
vn 1 0 0 
vn 1 0 0 
vn 1 0 0 
vn 1 0 0 
vn 1 0 0 
vn 1 0 0 
vn 1 0 0 
vn 1 0 0 
vn 1 0 0 
vn 1 0 0 
vn 1 0 0 
vn 1 0 0 
vn 1 0 0 
vn 1 0 0 
vn 1 0 0 
vn 0.984252 -0.165354 0 
vn 0.984252 -0.165354 0 
vn 1 0 0 
vn 1 0 0 
vn 0.984252 0.165354 0 
vn 0.984252 0.165354 0 
vn 1 0 0 
vn 1 0 0 
vn 1 0 0 
vn 1 0 0 
vn 0.937008 -0.346457 0 
vn 1 0 0 
vn 0.937008 -0.346457 0 
vn 1 0 0 
vn 0.937008 0.346457 0 
vn 0.937008 0.346457 0 
vn 0.80315 -0.598425 0 
vn 0.80315 -0.598425 0 
vn 0.80315 -0.598425 0 
vn 0.80315 -0.598425 0 
vn 0.708661 0.708661 0 
vn 0.708661 0.708661 0 
vn 1 0 0 
vn 1 0 0 
vn 0.708661 -0.708661 0 
vn 0.708661 -0.708661 0 
vn 0 -1 0 
vn 0 -1 0 
vn 0.708661 -0.708661 0 
vn 0.708661 -0.708661 0 
vn 1 0 0 
vn 1 0 0 
vn 0.708661 0.708661 0 
vn 0.708661 0.708661 0 

vt 50.0505 -26.9235 
vt 49.9548 -26.9822 
vt 50.0452 -26.9822 
vt 49.9495 -26.9235 
vt 49.9548 -27.0409 
vt 50.0452 -27.0409 
vt 49.9495 -27.0996 
vt 50.0505 -27.0996 
vt 50.0127 -26.9491 
vt 50.009 -26.9527 
vt 49.9873 -26.9745 
vt 50.0336 -26.9004 
vt 49.9567 -26.9642 
vt 50.0433 -26.9642 
vt 50.0433 -26.9064 
vt 49.9664 -26.9004 
vt 49.9567 -26.9064 
vt 50.04 -26.9707 
vt 49.96 -26.9707 
vt 49.9714 -27.0167 
vt 49.96 -27.0108 
vt 50.0286 -27.0167 
vt 50.04 -27.0108 
vt 50.0505 -27.0996 
vt 49.9495 -26.9235 
vt 50.0356 -27.0117 
vt 49.9644 -27.0117 
vt 49.9644 -26.9974 
vt 50.0356 -26.9974 
vt 49.9567 -26.9064 
vt 50.04 -26.9707 
vt 49.9774 -26.913 
vt 50.0226 -26.9318 
vt 49.9622 -26.9423 
vt 50.0378 -26.9548 
vt 50.0378 -26.9423 
vt 49.9622 -26.9548 
vt 50.0378 -26.9673 
vt 49.9622 -26.9673 
vt 49.9622 -26.9548 
vt 50.0378 -26.9548 
vt 50.0176 -26.9618 
vt 49.9824 -26.9618 
vt 50.0314 -26.9402 
vt 49.9686 -26.9402 
vt 50.0314 -26.9673 
vt 49.9686 -26.9673 
vt 50.0226 -26.913 
vt 49.9774 -26.913 
vt 50.0226 -26.9318 
vt 49.9774 -26.9318 
vt 50.0356 -26.983 
vt 49.9644 -26.983 
vt 50.0356 -26.9974 
vt 49.9644 -26.9974 
vt 50.0084 -26.94 
vt 50.0068 -26.956 
vt 50.0118 -26.9493 
vt 49.9932 -26.956 
vt 50.0068 -26.9241 
vt 50.0118 -26.9308 
vt 50 -26.9221 
vt 49.9916 -26.94 
vt 49.9882 -26.9493 
vt 49.9932 -26.9241 
vt 49.9882 -26.9308 
vt 50.0127 -26.9745 
vt 49.9873 -26.9745 
vt 50 -26.9797 
vt 50.0127 -26.9491 
vt 50.0179 -26.9618 
vt 49.9873 -26.9491 
vt 49.9821 -26.9618 
vt 50 -26.9439 
vt 49.5185 -27.0505 
vt 49.5185 -26.9495 
vt 50.4815 -27.0128 
vt 50.4815 -26.9821 
vt 50.4815 -26.991 
vt 50.4236 -26.991 
vt 50.4815 -27 
vt 50.4236 -27.009 
vt 50.4815 -27.009 
vt 50.4236 -27 
vt 49.7399 -26.96 
vt 50.4181 -27 
vt 50.2775 -26.9902 
vt 50.2775 -27 
vt 50.4181 -26.9902 
vt 50.4181 -27.0098 
vt 50.2775 -26.9862 
vt 50.2775 -27.0098 
vt 50.4181 -27.0138 
vt 50.2775 -27.0138 
vt 50.2781 -26.9882 
vt 50.2781 -27.0068 
vt 49.5534 -27.0505 
vt 49.5534 -27.0452 
vt 49.5534 -26.9495 
vt 49.5534 -26.9548 
vt 49.9239 -27.0356 
vt 49.9239 -26.9644 
vt 49.7399 -26.9664 
vt 49.7399 -27.0336 
vt 49.7652 -27.0336 
vt 49.7652 -26.9664 
vt 49.7652 -27.0433 
vt 49.7399 -26.9567 
vt 49.7399 -27.0433 
vt 49.7652 -27.0433 
vt 49.7652 -26.9567 
vt 49.7652 -26.9567 
vt 49.5185 -26.9495 
vt 49.5185 -27.0505 
vt 49.5534 -27.0505 
vt 49.5534 -26.9495 
vt 49.7652 -27.04 
vt 50.2013 -27.0068 
vt 50.2781 -27.0068 
vt 50.2781 -27 
vt 50.2013 -27.0118 
vt 50.2781 -27.0118 
vt 50.2013 -27 
vt 50.2781 -26.9932 
vt 50.2013 -26.9932 
vt 50.2781 -26.9882 
vt 50.2013 -26.9882 
vt 50.0447 -27.0378 
vt 50.0447 -26.9622 
vt 49.8768 -27.0356 
vt 49.8768 -26.9644 
vt 49.85 -26.9686 
vt 49.85 -27.0314 
vt 50.1829 -26.9774 
vt 49.7974 -26.9774 
vt 50.1829 -26.9774 
vt 49.7974 -27.0226 
vt 50.1829 -27.0226 
vt 50.0528 -26.9622 
vt 50.0528 -27.0378 
vt 50.1875 -26.9622 
vt 50.1875 -27.0378 
vt 49.6703 -27 
vt 49.6099 -26.9737 
vt 49.6099 -27 
vt 49.6703 -26.9737 
vt 49.6703 -27.0263 
vt 49.6099 -27.0263 
vt 50.2832 -27.0124 
vt 50.1999 -27 
vt 50.1999 -27.0124 
vt 50.2832 -27 
vt 50.1999 -26.9876 
vt 50.1999 -27.0176 
vt 50.2832 -26.9876 
vt 50.1999 -26.9824 
vt 49.85 -27.0314 
vt 49.85 -26.9686 
vt 49.85 -26.9686 
vt 50.0318 -26.9686 
vt 50.0318 -27.0314 
vt 50.0318 -27.0314 
vt 49.7974 -27.0226 
vt 49.7974 -26.9774 
vt 49.7974 -27.0226 
vt 50.1829 -26.9774 
vt 50.1829 -27.0226 
vt 50.1829 -26.9774 
vt 50.4815 -26.9873 
vt 50.4157 -26.9821 
vt 50.4157 -26.9873 
vt 50.4815 -26.9873 
vt 50.4157 -27 
vt 50.4815 -27 
vt 50.4157 -27.0179 
vt 50.4157 -27.0127 
vt 50.4815 -27.0127 
vt 49.8768 -27.0356 
vt 49.8768 -26.9644 
vt 49.8703 -27.0356 
vt 49.9174 -26.9644 
vt 49.9174 -27.0356 
vt 50.4741 -26.9822 
vt 50.4815 -26.9235 
vt 50.4815 -27.0996 
vt 49.5764 -26.9527 
vt 49.5185 -26.9527 
vt 49.5764 -26.9618 
vt 49.5185 -26.9618 
vt 49.5764 -26.9708 
vt 49.5185 -26.9708 
vt 49.7225 -26.952 
vt 49.5819 -26.952 
vt 49.7225 -26.9618 
vt 49.5819 -26.9618 
vt 49.7225 -26.9715 
vt 49.5819 -26.9715 
vt 49.7219 -26.9308 
vt 50.4466 -27.0996 
vt 50.4741 -26.9822 
vt 50.4466 -26.9235 
vt 50.4466 -26.9822 
vt 50.4815 -26.9235 
vt 50.4466 -27.0409 
vt 50.4741 -27.0409 
vt 50.4466 -27.0996 
vt 50.4815 -27.0996 
vt 50.2601 -26.9064 
vt 50.2348 -26.9064 
vt 50.2348 -26.9642 
vt 50.2601 -26.9642 
vt 50.2348 -27.0108 
vt 50.2601 -27.0108 
vt 50.2348 -26.9707 
vt 50.2601 -26.9707 
vt 49.7987 -26.9241 
vt 49.7219 -26.9241 
vt 49.7987 -26.9241 
vt 49.7219 -26.9308 
vt 49.7987 -26.9308 
vt 50.2601 -26.9707 
vt 50.2348 -26.9642 
vt 50.2348 -26.9707 
vt 50.2601 -26.9642 
vt 49.8125 -26.9673 
vt 49.9472 -26.9423 
vt 49.8125 -26.9423 
vt 49.8044 -26.9548 
vt 49.9472 -26.9673 
vt 49.9553 -26.9548 
vt 50.0826 -27.0117 
vt 50.1232 -26.983 
vt 50.0826 -26.983 
vt 50.0761 -26.9974 
vt 50.1232 -27.0117 
vt 50.1297 -26.9974 
vt 50.15 -26.9402 
vt 49.9682 -26.9402 
vt 50.15 -26.9673 
vt 49.9682 -26.9673 
vt 50.3901 -26.9755 
vt 50.3297 -26.9755 
vt 50.3901 -26.9999 
vt 50.3297 -26.9999 
vt 50.3901 -26.9511 
vt 50.3297 -26.9511 
vt 50.2026 -26.913 
vt 49.8171 -26.913 
vt 50.2026 -26.9318 
vt 49.8171 -26.9318 
vt 49.7987 -26.9308 
vt 49.7219 -26.9308 
vt 49.7987 -26.94 
vt 49.7219 -26.94 
vt 49.7987 -26.9493 
vt 49.7219 -26.9493 
vt 49.7219 -26.956 
vt 49.7987 -26.956 
vt 49.7987 -26.9493 
vt 49.7219 -26.9493 
vt 49.8001 -26.9494 
vt 49.8001 -26.9494 
vt 49.7168 -26.9494 
vt 49.8001 -26.9618 
vt 49.7168 -26.9618 
vt 49.7168 -26.9793 
vt 49.8001 -26.9742 
vt 49.8001 -26.9793 
vt 49.7168 -26.9742 
vt 49.5185 -26.9745 
vt 49.5843 -26.9745 
vt 49.5843 -26.9618 
vt 49.5185 -26.9618 
vt 49.5843 -26.9491 
vt 49.5185 -26.9491 
vt 49.9495 -26.9235 
vt 50.0505 -27.0996 
vt 50 -26.949 
vt 50.0127 -26.9491 
vt 50 -26.9439 
vt 49.9873 -26.9491 
vt 50.009 -26.9527 
vt 49.991 -26.9527 
vt 50.0128 -26.9618 
vt 49.9872 -26.9618 
vt 50.0179 -26.9618 
vt 49.9821 -26.9618 
vt 50.0127 -26.9745 
vt 49.9873 -26.9745 
vt 50.009 -26.9708 
vt 49.991 -26.9708 
vt 50 -26.9746 
vt 50 -26.9797 
vt 50.009 -26.9527 
vt 50.0128 -26.9618 
vt 50 -26.949 
vt 50.009 -26.9708 
vt 49.991 -26.9527 
vt 49.9872 -26.9618 
vt 49.991 -26.9708 
vt 50 -26.9746 
vt 49.9567 -26.9064 
vt 50.04 -27.0108 
vt 50.0138 -26.9618 
vt 49.9862 -26.9618 
vt 50.0176 -26.9618 
vt 50.0124 -26.9494 
vt 50.0124 -26.9742 
vt 49.9876 -26.9742 
vt 50 -26.9793 
vt 49.9876 -26.9494 
vt 50 -26.9442 
vt 49.9824 -26.9618 
vt 50.0068 -26.956 
vt 50.0084 -26.94 
vt 49.9932 -26.956 
vt 50.0118 -26.9493 
vt 49.9916 -26.94 
vt 49.9882 -26.9493 
vt 50.0068 -26.9241 
vt 50.0118 -26.9308 
vt 50 -26.9221 
vt 49.9932 -26.9241 
vt 49.9882 -26.9308 
vt 50.0505 -27.0996 
vt 49.9495 -27.0996 
vt 49.9495 -26.9235 
vt 49.9548 -26.9822 
vt 50.0505 -26.9235 
vt 50.0452 -26.9822 
vt 49.9644 -27.0117 
vt 50.0356 -27.0117 
vt 49.9644 -26.9974 
vt 50.0356 -26.9974 
vt 50.0433 -26.9064 
vt 49.96 -26.9707 
vt 50.0378 -26.9423 
vt 49.9622 -26.9423 
vt 50.0378 -26.9548 
vt 49.9622 -26.9548 
vt 49.9622 -26.9673 
vt 50.0378 -26.9673 
vt 49.9622 -26.9548 
vt 50.0378 -26.9548 
vt 50.0314 -26.9402 
vt 49.9686 -26.9673 
vt 49.9686 -26.9402 
vt 50.0314 -26.9673 
vt 50.0226 -26.913 
vt 49.9774 -26.9318 
vt 49.9774 -26.913 
vt 50.0226 -26.9318 
vt 50.0356 -26.983 
vt 49.9644 -26.983 
vt 50.0356 -26.9974 
vt 49.9644 -26.9974 
vt 49.9567 -26.9642 
vt 49.9664 -26.9004 
vt 49.9567 -26.9064 
vt 50.0336 -26.9004 
vt 50.0433 -26.9642 
vt 50.0433 -26.9064 
vt 50.04 -26.9707 
vt 49.96 -26.9707 
vt 49.9714 -27.0167 
vt 49.96 -27.0108 
vt 50.0286 -27.0167 
vt 50.04 -27.0108 
vt 49.9495 -26.9235 
vt 49.9548 -26.9822 
vt 50.0505 -26.9235 
vt 50.0452 -26.9822 
vt 49.9548 -27.0409 
vt 50.0452 -27.0409 
vt 49.9495 -27.0996 
vt 50.0505 -27.0996 
vt 50.4815 -26.9495 
vt 50.4815 -27.0505 
vt 49.5185 -27.0128 
vt 49.5185 -26.9821 
vt 49.5764 -26.991 
vt 49.5185 -26.991 
vt 49.5764 -27 
vt 49.5185 -27 
vt 49.5764 -27.009 
vt 49.5185 -27.009 
vt 50.2601 -26.96 
vt 49.7225 -26.9862 
vt 49.5819 -27.0138 
vt 49.7225 -26.9902 
vt 49.7225 -27.0138 
vt 49.5819 -26.9902 
vt 49.5819 -27.0098 
vt 49.7225 -27 
vt 49.7225 -27.0098 
vt 49.5819 -27 
vt 50.4466 -26.9495 
vt 50.4466 -27.0505 
vt 50.4815 -27.0505 
vt 50.4815 -26.9495 
vt 50.4466 -27.0452 
vt 50.4466 -26.9548 
vt 50.1232 -27.0356 
vt 50.1232 -26.9644 
vt 50.0826 -27.0356 
vt 50.1297 -26.9644 
vt 50.0826 -26.9644 
vt 50.0761 -27.0356 
vt 50.0761 -26.9644 
vt 50.2348 -27.0433 
vt 50.2348 -26.9567 
vt 50.2348 -27.04 
vt 50.2348 -27.04 
vt 50.2601 -27.04 
vt 50.2348 -27.0286 
vt 50.2601 -27.0286 
vt 50.2348 -26.9714 
vt 50.2601 -26.9714 
vt 50.2348 -26.96 
vt 50.2601 -26.96 
vt 49.9553 -27.0378 
vt 49.9553 -26.9622 
vt 50.3901 -27 
vt 50.3297 -27 
vt 50.3901 -27.0263 
vt 50.3297 -27.0263 
vt 50.3297 -26.9737 
vt 50.3901 -26.9737 
vt 50.1232 -27.0356 
vt 50.1232 -26.9644 
vt 50.15 -26.9686 
vt 50.15 -27.0314 
vt 49.8171 -26.9774 
vt 50.2026 -26.9774 
vt 49.8171 -26.9774 
vt 50.2026 -27.0226 
vt 49.8171 -27.0226 
vt 49.8125 -27.0378 
vt 49.9472 -27.0378 
vt 49.9472 -26.9622 
vt 49.8125 -26.9622 
vt 49.8001 -27.0124 
vt 49.8001 -27.0176 
vt 49.7168 -27.0124 
vt 49.8001 -26.9824 
vt 49.8001 -27.0124 
vt 49.7168 -27 
vt 49.8001 -26.9876 
vt 49.8001 -27 
vt 49.7168 -26.9876 
vt 50.15 -27.0314 
vt 50.15 -27.0314 
vt 50.15 -26.9686 
vt 49.9682 -26.9686 
vt 49.9682 -27.0314 
vt 49.9682 -26.9686 
vt 50.2026 -26.9774 
vt 50.2026 -27.0226 
vt 50.2026 -26.9774 
vt 49.8171 -27.0226 
vt 49.8171 -27.0226 
vt 49.8171 -26.9774 
vt 49.5185 -26.9873 
vt 49.5843 -26.9873 
vt 49.5843 -26.9821 
vt 49.5185 -27 
vt 49.5843 -27 
vt 49.5185 -27.0127 
vt 49.5843 -27.0127 
vt 49.5185 -26.9235 
vt 49.5259 -27.0409 
vt 49.5185 -27.0996 
vt 50.4236 -26.9527 
vt 50.4815 -26.9618 
vt 50.4815 -26.9527 
vt 50.4236 -26.9618 
vt 50.4815 -26.9708 
vt 50.4236 -26.9708 
vt 50.4181 -26.952 
vt 50.2775 -26.952 
vt 50.4181 -26.9618 
vt 50.2775 -26.9618 
vt 50.4181 -26.9715 
vt 50.2775 -26.9715 
vt 50.2781 -26.9241 
vt 49.5534 -27.0996 
vt 49.5185 -26.9235 
vt 49.5259 -26.9822 
vt 49.5534 -26.9235 
vt 49.5534 -26.9822 
vt 49.5259 -27.0409 
vt 49.5534 -27.0409 
vt 49.5534 -27.0996 
vt 49.5185 -27.0996 
vt 49.7652 -26.9064 
vt 49.7399 -26.9064 
vt 49.7399 -26.9642 
vt 49.7652 -26.9642 
vt 49.7652 -26.9707 
vt 49.7399 -26.9707 
vt 49.7652 -27.0108 
vt 49.7399 -27.0108 
vt 50.2013 -26.9241 
vt 50.2781 -26.9241 
vt 50.2013 -26.9308 
vt 50.2781 -26.9308 
vt 50.2781 -26.9241 
vt 49.7399 -26.9707 
vt 49.7652 -26.9707 
vt 49.7399 -26.9642 
vt 49.7652 -26.9642 
vt 50.1875 -26.9423 
vt 50.1875 -26.9673 
vt 50.1956 -26.9548 
vt 50.0528 -26.9673 
vt 50.0528 -26.9423 
vt 50.0447 -26.9548 
vt 49.9174 -26.983 
vt 49.9174 -27.0117 
vt 49.9239 -26.9974 
vt 49.8768 -27.0117 
vt 49.8768 -26.983 
vt 49.8703 -26.9974 
vt 49.85 -26.9402 
vt 50.0318 -26.9673 
vt 50.0318 -26.9402 
vt 49.85 -26.9673 
vt 49.6099 -26.9999 
vt 49.6703 -26.9999 
vt 49.6099 -26.9755 
vt 49.6703 -26.9755 
vt 49.6099 -26.9511 
vt 49.6703 -26.9511 
vt 49.7974 -26.913 
vt 50.1829 -26.9318 
vt 50.1829 -26.913 
vt 49.7974 -26.9318 
vt 50.2013 -26.9308 
vt 50.2781 -26.94 
vt 50.2781 -26.9308 
vt 50.2013 -26.94 
vt 50.2781 -26.9493 
vt 50.2013 -26.9493 
vt 50.2781 -26.9493 
vt 50.2013 -26.9493 
vt 50.2013 -26.956 
vt 50.2781 -26.956 
vt 50.2832 -26.9494 
vt 50.1999 -26.9494 
vt 50.2832 -26.9618 
vt 50.1999 -26.9618 
vt 50.2832 -26.9742 
vt 50.1999 -26.9742 
vt 50.2832 -26.9793 
vt 50.1999 -26.9793 
vt 50.4815 -26.9745 
vt 50.4157 -26.9745 
vt 50.4815 -26.9618 
vt 50.4157 -26.9618 
vt 50.4157 -26.9491 
vt 50.4815 -26.9491 

usemtl Meshpart1Mtl

f 1/1/1 2/2/2 3/3/3 
f 2/2/2 1/1/1 4/4/4 
f 5/5/5 3/3/3 2/2/2 
f 3/3/3 5/5/5 6/6/6 
f 7/7/7 6/6/6 5/5/5 
f 6/6/6 7/7/7 8/8/8 
f 12/12/12 13/13/13 14/14/14 
f 12/12/12 14/14/14 15/15/15 
f 16/16/16 13/13/13 12/12/12 
f 13/13/13 16/16/16 17/17/17 
f 14/14/14 13/13/13 18/18/18 
f 18/18/18 13/13/13 19/19/19 
f 19/19/19 20/20/20 18/18/18 
f 20/20/20 19/19/19 21/21/21 
f 22/22/22 18/18/18 20/20/20 
f 18/18/18 22/22/22 23/23/23 
f 26/26/26 28/28/28 27/27/27 
f 29/29/29 28/28/28 26/26/26 
f 34/34/34 35/35/35 36/36/36 
f 35/35/35 34/34/34 37/37/37 
f 38/38/38 40/40/40 39/39/39 
f 40/40/40 38/38/38 41/41/41 
f 44/44/44 45/45/45 46/46/46 
f 46/46/46 45/45/45 47/47/47 
f 48/48/48 49/49/49 50/50/50 
f 50/50/50 49/49/49 51/51/51 
f 52/52/52 53/53/53 54/54/54 
f 54/54/54 53/53/53 55/55/55 
f 56/56/56 57/57/57 58/58/58 
f 57/57/57 56/56/56 59/59/59 
f 60/60/60 56/56/56 61/61/61 
f 62/62/62 56/56/56 60/60/60 
f 63/63/63 59/59/59 56/56/56 
f 62/62/62 63/63/63 56/56/56 
f 59/59/59 63/63/63 64/64/64 
f 63/63/63 62/62/62 65/65/65 
f 63/63/63 65/65/65 66/66/66 
f 67/67/67 68/68/68 69/69/69 
f 68/68/68 67/67/67 70/70/70 
f 70/70/70 67/67/67 71/71/71 
f 70/70/70 72/72/72 68/68/68 
f 68/68/68 72/72/72 73/73/73 
f 72/72/72 70/70/70 74/74/74 
f 79/79/79 80/80/80 81/81/81 
f 84/84/84 81/81/81 80/80/80 
f 81/81/81 84/84/84 83/83/83 
f 82/82/82 83/83/83 84/84/84 
f 86/86/86 87/87/87 88/88/88 
f 87/87/87 86/86/86 89/89/89 
f 88/88/88 90/90/90 86/86/86 
f 90/90/90 88/88/88 92/92/92 
f 103/103/103 104/104/104 105/105/105 
f 105/105/105 106/106/106 103/103/103 
f 104/104/104 107/107/107 105/105/105 
f 103/103/103 106/106/106 108/108/108 
f 107/107/107 104/104/104 109/109/109 
f 111/111/111 108/108/108 106/106/106 
f 113/113/113 114/114/114 115/115/115 
f 115/115/115 116/116/116 113/113/113 
f 118/118/118 119/119/119 120/120/120 
f 118/118/118 120/120/120 123/123/123 
f 123/123/123 120/120/120 124/124/124 
f 123/123/123 124/124/124 125/125/125 
f 140/140/140 141/141/141 139/139/139 
f 140/140/140 142/142/142 141/141/141 
f 143/143/143 144/144/144 145/145/145 
f 144/144/144 143/143/143 146/146/146 
f 145/145/145 147/147/147 143/143/143 
f 147/147/147 145/145/145 148/148/148 
f 149/149/149 150/150/150 151/151/151 
f 150/150/150 149/149/149 152/152/152 
f 152/152/152 153/153/153 150/150/150 
f 153/153/153 152/152/152 155/155/155 
f 157/157/157 160/160/160 158/158/158 
f 157/157/157 162/162/162 160/160/160 
f 163/163/163 166/166/166 164/164/164 
f 163/163/163 167/167/167 166/166/166 
f 173/173/173 172/172/172 171/171/171 
f 172/172/172 173/173/173 174/174/174 
f 176/176/176 174/174/174 173/173/173 
f 174/174/174 176/176/176 177/177/177 
f 178/178/178 181/181/181 179/179/179 
f 182/182/182 181/181/181 178/178/178 
f 187/187/187 188/188/188 186/186/186 
f 188/188/188 187/187/187 189/189/189 
f 189/189/189 190/190/190 188/188/188 
f 190/190/190 189/189/189 191/191/191 
f 192/192/192 193/193/193 194/194/194 
f 195/195/195 194/194/194 193/193/193 
f 194/194/194 195/195/195 196/196/196 
f 197/197/197 196/196/196 195/195/195 
f 200/200/200 201/201/201 202/202/202 
f 201/201/201 200/200/200 203/203/203 
f 204/204/204 200/200/200 202/202/202 
f 205/205/205 200/200/200 204/204/204 
f 206/206/206 205/205/205 204/204/204 
f 207/207/207 205/205/205 206/206/206 
f 210/210/210 208/208/208 209/209/209 
f 208/208/208 210/210/210 211/211/211 
f 213/213/213 214/214/214 212/212/212 
f 214/214/214 213/213/213 215/215/215 
f 219/219/219 218/218/218 217/217/217 
f 219/219/219 220/220/220 218/218/218 
f 221/221/221 222/222/222 223/223/223 
f 222/222/222 221/221/221 224/224/224 
f 225/225/225 226/226/226 227/227/227 
f 225/225/225 227/227/227 228/228/228 
f 229/229/229 226/226/226 225/225/225 
f 226/226/226 229/229/229 230/230/230 
f 231/231/231 232/232/232 233/233/233 
f 231/231/231 233/233/233 234/234/234 
f 235/235/235 232/232/232 231/231/231 
f 232/232/232 235/235/235 236/236/236 
f 237/237/237 238/238/238 239/239/239 
f 240/240/240 239/239/239 238/238/238 
f 241/241/241 242/242/242 243/243/243 
f 244/244/244 243/243/243 242/242/242 
f 245/245/245 242/242/242 241/241/241 
f 242/242/242 245/245/245 246/246/246 
f 247/247/247 248/248/248 249/249/249 
f 250/250/250 249/249/249 248/248/248 
f 251/251/251 252/252/252 253/253/253 
f 254/254/254 253/253/253 252/252/252 
f 253/253/253 254/254/254 255/255/255 
f 256/256/256 255/255/255 254/254/254 
f 257/257/257 258/258/258 259/259/259 
f 257/257/257 259/259/259 260/260/260 
f 262/262/262 263/263/263 264/264/264 
f 265/265/265 264/264/264 263/263/263 
f 264/264/264 265/265/265 267/267/267 
f 269/269/269 267/267/267 265/265/265 
f 270/270/270 271/271/271 272/272/272 
f 270/270/270 272/272/272 273/273/273 
f 273/273/273 272/272/272 274/274/274 
f 273/273/273 274/274/274 275/275/275 
f 278/278/278 279/279/279 280/280/280 
f 281/281/281 278/278/278 280/280/280 
f 279/279/279 278/278/278 282/282/282 
f 278/278/278 281/281/281 283/283/283 
f 284/284/284 279/279/279 282/282/282 
f 285/285/285 283/283/283 281/281/281 
f 279/279/279 284/284/284 286/286/286 
f 281/281/281 287/287/287 285/285/285 
f 284/284/284 288/288/288 286/286/286 
f 289/289/289 285/285/285 287/287/287 
f 288/288/288 284/284/284 290/290/290 
f 285/285/285 289/289/289 291/291/291 
f 292/292/292 288/288/288 290/290/290 
f 289/289/289 292/292/292 291/291/291 
f 288/288/288 292/292/292 293/293/293 
f 289/289/289 293/293/293 292/292/292 
f 294/294/294 297/297/297 295/295/295 
f 298/298/298 294/294/294 296/296/296 
f 298/298/298 297/297/297 294/294/294 
f 300/300/300 298/298/298 299/299/299 
f 298/298/298 300/300/300 297/297/297 
f 297/297/297 300/300/300 301/301/301 
f 306/306/306 307/307/307 308/308/308 
f 309/309/309 308/308/308 307/307/307 
f 308/308/308 309/309/309 310/310/310 
f 309/309/309 307/307/307 311/311/311 
f 311/311/311 307/307/307 312/312/312 
f 309/309/309 311/311/311 313/313/313 
f 314/314/314 315/315/315 316/316/316 
f 315/315/315 314/314/314 317/317/317 
f 318/318/318 316/316/316 315/315/315 
f 316/316/316 318/318/318 319/319/319 
f 320/320/320 315/315/315 321/321/321 
f 322/322/322 315/315/315 320/320/320 
f 322/322/322 318/318/318 315/315/315 
f 318/318/318 322/322/322 323/323/323 
f 318/318/318 323/323/323 324/324/324 
f 331/331/331 332/332/332 333/333/333 
f 333/333/333 332/332/332 334/334/334 
f 338/338/338 339/339/339 337/337/337 
f 340/340/340 339/339/339 338/338/338 
f 341/341/341 342/342/342 343/343/343 
f 343/343/343 342/342/342 344/344/344 
f 347/347/347 348/348/348 345/345/345 
f 346/346/346 348/348/348 347/347/347 
f 351/351/351 352/352/352 349/349/349 
f 350/350/350 352/352/352 351/351/351 
f 354/354/354 355/355/355 353/353/353 
f 356/356/356 355/355/355 354/354/354 
f 357/357/357 358/358/358 359/359/359 
f 358/358/358 357/357/357 360/360/360 
f 360/360/360 357/357/357 361/361/361 
f 360/360/360 361/361/361 362/362/362 
f 361/361/361 357/357/357 363/363/363 
f 363/363/363 357/357/357 364/364/364 
f 364/364/364 365/365/365 363/363/363 
f 365/365/365 364/364/364 366/366/366 
f 363/363/363 365/365/365 367/367/367 
f 363/363/363 367/367/367 368/368/368 
f 369/369/369 370/370/370 371/371/371 
f 370/370/370 372/372/372 371/371/371 
f 370/370/370 373/373/373 372/372/372 
f 373/373/373 374/374/374 372/372/372 
f 373/373/373 375/375/375 374/374/374 
f 375/375/375 376/376/376 374/374/374 
f 382/382/382 383/383/383 381/381/381 
f 383/383/383 382/382/382 384/384/384 
f 384/384/384 385/385/385 383/383/383 
f 385/385/385 384/384/384 386/386/386 
f 390/390/390 392/392/392 394/394/394 
f 396/396/396 394/394/394 392/392/392 
f 393/393/393 395/395/395 396/396/396 
f 394/394/394 396/396/396 395/395/395 
f 397/397/397 398/398/398 399/399/399 
f 399/399/399 400/400/400 397/397/397 
f 403/403/403 404/404/404 405/405/405 
f 405/405/405 404/404/404 407/407/407 
f 414/414/414 415/415/415 413/413/413 
f 415/415/415 414/414/414 416/416/416 
f 417/417/417 415/415/415 416/416/416 
f 416/416/416 418/418/418 417/417/417 
f 417/417/417 418/418/418 419/419/419 
f 420/420/420 419/419/419 418/418/418 
f 423/423/423 424/424/424 425/425/425 
f 426/426/426 425/425/425 424/424/424 
f 424/424/424 423/423/423 427/427/427 
f 428/428/428 427/427/427 423/423/423 
f 438/438/438 439/439/439 440/440/440 
f 438/438/438 440/440/440 441/441/441 
f 444/444/444 446/446/446 447/447/447 
f 449/449/449 447/447/447 446/446/446 
f 447/447/447 449/449/449 450/450/450 
f 448/448/448 450/450/450 449/449/449 
f 455/455/455 452/452/452 453/453/453 
f 455/455/455 453/453/453 456/456/456 
f 460/460/460 458/458/458 459/459/459 
f 460/460/460 459/459/459 462/462/462 
f 466/466/466 464/464/464 463/463/463 
f 466/466/466 467/467/467 464/464/464 
f 468/468/468 467/467/467 466/466/466 
f 468/468/468 469/469/469 467/467/467 
f 473/473/473 474/474/474 475/475/475 
f 474/474/474 473/473/473 476/476/476 
f 476/476/476 477/477/477 474/474/474 
f 477/477/477 476/476/476 478/478/478 
f 479/479/479 480/480/480 481/481/481 
f 482/482/482 481/481/481 480/480/480 
f 481/481/481 482/482/482 483/483/483 
f 484/484/484 483/483/483 482/482/482 
f 487/487/487 488/488/488 489/489/489 
f 489/489/489 488/488/488 490/490/490 
f 488/488/488 491/491/491 490/490/490 
f 490/490/490 491/491/491 492/492/492 
f 491/491/491 493/493/493 492/492/492 
f 493/493/493 491/491/491 494/494/494 
f 496/496/496 497/497/497 495/495/495 
f 495/495/495 497/497/497 498/498/498 
f 499/499/499 500/500/500 501/501/501 
f 500/500/500 502/502/502 501/501/501 
f 504/504/504 503/503/503 505/505/505 
f 504/504/504 505/505/505 506/506/506 
f 508/508/508 509/509/509 510/510/510 
f 511/511/511 510/510/510 509/509/509 
f 512/512/512 513/513/513 514/514/514 
f 513/513/513 512/512/512 515/515/515 
f 512/512/512 516/516/516 515/515/515 
f 515/515/515 516/516/516 517/517/517 
f 518/518/518 519/519/519 520/520/520 
f 519/519/519 518/518/518 521/521/521 
f 518/518/518 522/522/522 521/521/521 
f 521/521/521 522/522/522 523/523/523 
f 524/524/524 525/525/525 526/526/526 
f 525/525/525 524/524/524 527/527/527 
f 528/528/528 529/529/529 530/530/530 
f 531/531/531 530/530/530 529/529/529 
f 530/530/530 531/531/531 532/532/532 
f 533/533/533 532/532/532 531/531/531 
f 534/534/534 535/535/535 536/536/536 
f 535/535/535 534/534/534 537/537/537 
f 538/538/538 539/539/539 540/540/540 
f 539/539/539 538/538/538 541/541/541 
f 541/541/541 542/542/542 539/539/539 
f 542/542/542 541/541/541 543/543/543 
f 544/544/544 545/545/545 546/546/546 
f 544/544/544 546/546/546 547/547/547 
f 548/548/548 549/549/549 550/550/550 
f 551/551/551 550/550/550 549/549/549 
f 550/550/550 551/551/551 552/552/552 
f 553/553/553 552/552/552 551/551/551 
f 558/558/558 557/557/557 556/556/556 
f 558/558/558 559/559/559 557/557/557 
f 561/561/561 559/559/559 558/558/558 
f 561/561/561 560/560/560 559/559/559 

